<svg xmlns="http://www.w3.org/2000/svg" viewBox="0 0 512 512">
  <!-- gravedecay: a tombstone with devil horns, on the family's near-black surface -->
  <rect width="512" height="512" rx="100" fill="#1a1a19"/>
  <!-- mound -->
  <path d="M76 428 Q256 384 436 428 L436 452 L76 452 Z" fill="#2c2c2a"/>
  <!-- horns -->
  <path d="M158 160 Q128 118 134 62 Q180 96 208 148 Z" fill="#c22f27"/>
  <path d="M354 160 Q384 118 378 62 Q332 96 304 148 Z" fill="#c22f27"/>
  <!-- stone -->
  <path d="M146 428 L146 220 Q146 118 256 118 Q366 118 366 220 L366 428 Z" fill="#8f8d84"/>
  <path d="M146 428 L146 220 Q146 118 256 118 L256 428 Z" fill="#9b998f"/>
  <!-- epitaph: sleeping daemon eyes + RIP bars -->
  <g fill="#1a1a19">
    <rect x="192" y="212" width="52" height="14" rx="7" transform="rotate(12 218 219)"/>
    <rect x="268" y="212" width="52" height="14" rx="7" transform="rotate(-12 294 219)"/>
    <rect x="196" y="292" width="120" height="14" rx="7"/>
    <rect x="212" y="330" width="88" height="14" rx="7"/>
    <rect x="228" y="368" width="56" height="14" rx="7"/>
  </g>
</svg>
